<?xml version="1.0" encoding="utf-8"?>
<!-- Generator: Adobe Illustrator 26.1.0, SVG Export Plug-In . SVG Version: 6.00 Build 0)  -->
<svg version="1.1" id="Layer_2" xmlns="http://www.w3.org/2000/svg" xmlns:xlink="http://www.w3.org/1999/xlink" x="0px" y="0px"
	 viewBox="0 0 240.56 88.29" style="enable-background:new 0 0 240.56 88.29;" xml:space="preserve">
<style type="text/css">
	.st0{fill:#142749;}
	.st1{fill:#BBAF5B;}
</style>
<g>
	<g>
		<path class="st0" d="M24.61,21.55V0H0v21.55C8.21,20.2,16.52,20.23,24.61,21.55z"/>
		<path class="st0" d="M39.29,30.2c-0.13-0.05-0.26-0.1-0.39-0.15c-0.7-0.26-1.4-0.5-2.11-0.74c-0.24-0.08-0.49-0.17-0.73-0.25
			c-0.59-0.2-1.2-0.37-1.8-0.56c-0.34-0.1-0.67-0.21-1.01-0.31c-0.52-0.15-1.04-0.28-1.56-0.42c-0.86-0.23-1.73-0.44-2.6-0.63
			c-0.42-0.09-0.84-0.19-1.26-0.28c-0.47-0.1-0.94-0.18-1.41-0.27c-0.48-0.09-0.96-0.18-1.44-0.26C16.78,24.95,8.34,24.91,0,26.28
			v25.08v36.93h24.61V51.36c18.31,4.49,32.77,18.74,37.55,36.93h25.16C82.67,61.54,64.07,39.6,39.29,30.2z"/>
		<path class="st1" d="M76.62,52.06c4.93-8.27,8.34-17.54,9.84-27.45c0.57-3.75,0.86-7.58,0.86-11.48c0-4.48-0.41-8.86-1.15-13.13
			H61.01c1.1,4.19,1.69,8.59,1.69,13.13c0,3.95-0.46,7.79-1.3,11.48c-0.85,3.73-2.12,7.3-3.73,10.68
			C64.65,40.11,71.01,45.74,76.62,52.06z"/>
	</g>
	<g>
		<path class="st0" d="M108.05,56.47l8.28-20.04h3.94l8.28,20.04h-4.72l-1.35-3.36h-8.37l-1.35,3.36H108.05z M115.38,49.57h5.84
			l-2.9-7.27L115.38,49.57z"/>
		<path class="st0" d="M129.5,56.47V36.43h4.43v16.01h7.82v4.02H129.5z"/>
		<path class="st0" d="M143.01,56.47V36.43h4.43v8.94l7.73-8.94h5.26l-7.68,8.88l7.91,11.16h-5.2l-5.72-8.02l-2.3,2.56v5.46H143.01z
			"/>
		<path class="st0" d="M161.32,56.47V36.43h4.43v7.45h8.68v-7.45h4.43v20.04h-4.43v-8.57h-8.68v8.57H161.32z"/>
		<path class="st0" d="M179.84,56.47l8.28-20.04h3.94l8.28,20.04h-4.72l-1.35-3.36h-8.37l-1.35,3.36H179.84z M187.17,49.57h5.84
			l-2.9-7.27L187.17,49.57z"/>
		<path class="st0" d="M201.29,56.47V36.43h3.94l9.6,12.45V36.43h4.28v20.04h-3.62l-9.92-12.79v12.79H201.29z"/>
		<path class="st0" d="M220.06,56.47l8.28-20.04h3.94l8.28,20.04h-4.72l-1.35-3.36h-8.37l-1.35,3.36H220.06z M227.39,49.57h5.84
			l-2.9-7.27L227.39,49.57z"/>
		<path class="st0" d="M108.05,87.88V67.84h3.94l9.6,12.45V67.84h4.28v20.04h-3.62l-9.92-12.79v12.79H108.05z"/>
		<path class="st0" d="M128.35,87.88V67.84h13.69v4.03h-9.26v3.77h8.65v3.94h-8.65v4.28h9.46v4.02H128.35z"/>
		<path class="st0" d="M149.67,87.88V71.86h-5.43v-4.03h15.21v4.03h-5.35v16.01H149.67z"/>
	</g>
	<g>
		<rect x="115.81" y="1.93" class="st0" width="4.71" height="4.12"/>
		<rect x="122.35" y="1.93" class="st0" width="4.71" height="4.12"/>
		<path class="st0" d="M141.47,21.14h-3.27c-1.44,0-2.51-0.41-3.21-1.24c0.13-0.59,0.2-1.19,0.2-1.8V8.84h-4.58v8.54
			c0,1.13-0.31,2.05-0.93,2.73c-0.62,0.69-1.37,1.03-2.24,1.03h-9.98c-3.21,0-4.81-1.47-4.81-4.42V8.84h-4.58v8.61
			c0,2.18,0.64,4,1.93,5.45c1.29,1.45,3.32,2.18,6.09,2.18h12.73c1.94,0,3.51-0.71,4.71-2.13c0.68,0.7,1.45,1.23,2.31,1.59
			c0.86,0.36,1.65,0.54,2.37,0.54h7.82V8.84h-4.55V21.14z"/>
		<rect x="141.37" y="1.93" class="st0" width="4.71" height="4.12"/>
		<rect x="159.66" y="1.93" class="st0" width="4.71" height="4.12"/>
		<rect x="166.21" y="1.93" class="st0" width="4.71" height="4.12"/>
		<rect x="178.06" y="1.93" class="st0" width="4.71" height="4.12"/>
		<path class="st0" d="M178.16,21.14h-3.27h-0.65c-0.83,0-1.46-0.23-1.88-0.7c-0.43-0.47-0.64-1.27-0.64-2.41l0.03-8.87
			c-2.84-0.44-5.01-0.66-6.51-0.66c-1.77,0-3.32,0.36-4.66,1.08c-1.34,0.72-2.38,1.72-3.13,3c-0.74,1.28-1.11,2.7-1.11,4.27
			c0,1.64,0.35,3.08,1.05,4.32c0.7,1.24,1.66,2.2,2.88,2.88c1.22,0.68,2.59,1.01,4.09,1.01H165l1.77-3.93h-1.7
			c-1.29,0-2.27-0.38-2.96-1.13c-0.69-0.75-1.03-1.78-1.03-3.09c0-2.99,1.33-4.48,3.99-4.48c0.61,0,1.3,0.08,2.06,0.23v6.09
			c0,1.94,0.49,3.48,1.47,4.61c0.98,1.14,2.4,1.7,4.25,1.7h2.03h7.82V8.84h-4.55V21.14z"/>
		<rect x="206.26" y="1.93" class="st0" width="4.71" height="4.12"/>
		<path class="st0" d="M225.87,1.93v19.21h-3.27c-0.72,0-1.45-0.22-2.18-0.66c-0.73-0.44-1.24-1.04-1.52-1.8l-1.77-4.52
			c-0.68-1.75-1.78-3.13-3.32-4.14s-3.34-1.52-5.42-1.52c-2.18,0-4.22,0.5-6.12,1.51l1.67,3.73c1.13-0.55,2.39-0.82,3.76-0.82
			c1.24,0,2.31,0.29,3.21,0.87c0.89,0.58,1.56,1.4,2,2.47l1.51,3.63c-1.31,0.5-2.62,0.83-3.94,1c-1.32,0.16-2.81,0.25-4.47,0.25
			h-10.79h-0.65c-0.83,0-1.46-0.23-1.88-0.7c-0.43-0.47-0.64-1.27-0.64-2.41V1.93h-4.58v16.82c0,1.92,0.49,3.45,1.47,4.6
			c0.98,1.15,2.4,1.72,4.26,1.72h2.03H206c1.66,0,3.37-0.2,5.14-0.6c1.77-0.4,3.36-0.99,4.78-1.75c1.42,1.57,3.64,2.36,6.68,2.36
			c0,0,0,0,0,0h7.82V1.93H225.87z"/>
		<rect x="235.98" y="1.93" class="st0" width="4.58" height="23.14"/>
	</g>
	<rect x="162.58" y="83.68" class="st1" width="77.98" height="4.2"/>
</g>
</svg>
