<?xml version="1.0" encoding="utf-8"?>
<!-- Generator: Adobe Illustrator 26.1.0, SVG Export Plug-In . SVG Version: 6.00 Build 0)  -->
<svg version="1.1" id="Layer_1" xmlns="http://www.w3.org/2000/svg" xmlns:xlink="http://www.w3.org/1999/xlink" x="0px" y="0px"
	 viewBox="0 0 62.56 61.99" style="enable-background:new 0 0 62.56 61.99;" xml:space="preserve">
<style type="text/css">
	.st0{fill:#142749;}
</style>
<path class="st0" d="M14.54,3.9c-0.13-0.05-0.26-0.1-0.39-0.15c-0.7-0.26-1.4-0.5-2.11-0.74c-0.24-0.08-0.49-0.17-0.73-0.25
	c-0.59-0.2-1.2-0.37-1.8-0.56C9.17,2.1,8.84,1.99,8.5,1.9C7.98,1.75,7.46,1.62,6.94,1.48c-0.86-0.23-1.73-0.44-2.6-0.63
	C3.92,0.75,3.51,0.65,3.09,0.57C2.62,0.47,2.14,0.39,1.67,0.3C1.19,0.21,0.72,0.12,0.24,0.03C0.16,0.02,0.08,0.01,0,0v25.1
	c18.24,4.53,32.64,18.75,37.41,36.89h25.16C57.91,35.25,39.32,13.3,14.54,3.9z"/>
</svg>
