<svg version="1.1" id="Layer_1" xmlns="http://www.w3.org/2000/svg" xmlns:xlink="http://www.w3.org/1999/xlink" x="0px" y="0px" viewBox="0 0 198.59 236.79" style="enable-background:new 0 0 198.59 236.79;" xml:space="preserve">

	<g>
		<path class="gold" d="M53.46,211.69h22.91c2.11,0,3.82,1.71,3.82,3.82v0c0,2.11-1.71,3.82-3.82,3.82H53.46
		c-2.11,0-3.82-1.71-3.82-3.82v0C49.65,213.4,51.36,211.69,53.46,211.69z" />
		<path class="gold" d="M141.31,0L141.31,0c-21.93,0-41,12.41-50.62,30.56H19.1C8.57,30.56,0,39.12,0,49.65V217.7
		c0,10.53,8.57,19.1,19.1,19.1h91.66c10.53,0,19.1-8.57,19.1-19.1l0-104.27c3.7,0.75,7.53,1.15,11.46,1.15
		c31.59,0,57.29-25.7,57.29-57.29C198.59,25.7,172.9,0,141.31,0z M122.21,217.7c0,6.32-5.14,11.46-11.46,11.46H19.1
		c-6.32,0-11.46-5.14-11.46-11.46V49.65c0-6.32,5.14-11.46,11.46-11.46h68.27c-0.88,2.48-1.65,5.01-2.19,7.64l-0.96,7.64
		c-0.08,1.27-0.2,2.53-0.2,3.82c0,18.68,9.03,35.26,22.91,45.72l0,0l7.64,4.9c2.44,1.29,5,2.38,7.64,3.31L122.21,217.7z
		 M141.31,106.94c-27.38,0-49.65-22.27-49.65-49.65s22.27-49.65,49.65-49.65c27.38,0,49.65,22.27,49.65,49.65
		C190.96,84.67,168.68,106.94,141.31,106.94z" />
		<path class="dark" d="M177.29,65.17l-5.98-12.24c1.93-1.29,3.39-3.17,4.15-5.38c0.93-2.69,0.75-5.59-0.5-8.15
		c-1.81-3.69-5.48-5.99-9.6-5.99c-1.12,0-2.23,0.18-3.32,0.54l-5.98-12.24c-0.36-0.74-1.07-1.28-1.88-1.42
		c-0.82-0.15-1.66,0.11-2.26,0.68l-32.96,31.34l-9.98,4.87c-0.62,0.3-1.1,0.85-1.32,1.5c-0.22,0.65-0.18,1.38,0.12,2l0.87,1.79
		l-0.76,0.37c-2.01,0.98-3.52,2.69-4.24,4.8c-0.73,2.11-0.59,4.38,0.39,6.39c1.41,2.9,4.3,4.7,7.52,4.7c1.28,0,2.51-0.29,3.67-0.85
		l0.76-0.37l0.88,1.79c0.44,0.9,1.34,1.47,2.35,1.47c0.4,0,0.79-0.09,1.15-0.26l0.54-0.27l16.07,13.49
		c0.47,0.39,1.07,0.61,1.68,0.61c0.4,0,0.79-0.09,1.15-0.27l8.28-4.04c0.8-0.39,1.34-1.15,1.45-2.03c0.11-0.88-0.23-1.75-0.91-2.32
		l-12.93-10.85l39.64-5.93c0.82-0.12,1.54-0.63,1.93-1.37C177.64,66.8,177.65,65.92,177.29,65.17z M112.94,73.18
		c-0.43,0.21-0.9,0.32-1.38,0.32c-1.21,0-2.3-0.68-2.83-1.77c-0.37-0.75-0.42-1.61-0.15-2.4c0.27-0.79,0.84-1.43,1.59-1.8l0.76-0.37
		l2.76,5.65L112.94,73.18L112.94,73.18z M164.37,38.73c0.32-0.06,0.65-0.09,0.99-0.09c2.1,0,3.98,1.17,4.9,3.06
		c0.64,1.31,0.73,2.78,0.26,4.16c-0.31,0.9-0.84,1.69-1.54,2.31L164.37,38.73z M129.19,76.2l12.99,10.9l-3.14,1.53l-12.99-10.9
		L129.19,76.2z M164.51,65.24l-12.72-26.05c-0.31-0.63-0.84-1.1-1.5-1.32c-0.66-0.23-1.37-0.18-2,0.12c-0.63,0.31-1.1,0.84-1.32,1.5
		c-0.23,0.66-0.18,1.37,0.12,2l12,24.57l-28.02,4.19l-7.42-15.18l29.28-27.84l18.09,37.05L164.51,65.24z M126.07,71.9l-5.65,2.76
		l-6.8-13.93l5.65-2.76L126.07,71.9z" />
	</g>
</svg>