<svg version="1.1" id="Layer_1" xmlns="http://www.w3.org/2000/svg" xmlns:xlink="http://www.w3.org/1999/xlink" x="0px" y="0px" viewBox="0 0 219.25 219.25" style="enable-background:new 0 0 219.25 219.25;" xml:space="preserve">
	<g>
		<path class="gold" d="M123.39,73.42h-28.4l-0.08-0.4c-1.04-5.05-3.81-9.63-7.8-12.89c-3.99-3.26-9.03-5.06-14.19-5.06h-9.18
		c-5.16,0.01-10.2,1.8-14.19,5.06c-4,3.26-6.77,7.84-7.8,12.89l-0.08,0.4h-28.4c-3.54,0-6.87,1.38-9.38,3.89
		C1.38,79.81,0,83.14,0,86.68v64.24c0,3.54,1.38,6.87,3.88,9.38c2.51,2.51,5.84,3.89,9.38,3.89h23.44v5.09
		c0,3.54,1.38,6.87,3.88,9.38c2.47,2.47,5.89,3.89,9.38,3.89h0.5v32.62c0,1.09,0.43,2.12,1.2,2.89c0.77,0.77,1.8,1.2,2.89,1.2h27.53
		c1.09,0,2.12-0.43,2.89-1.2c0.77-0.77,1.2-1.8,1.2-2.89v-32.62h0.5c3.54,0,6.87-1.38,9.38-3.89c2.51-2.5,3.89-5.84,3.89-9.38v-5.09
		h23.44c3.49,0,6.91-1.42,9.38-3.89c2.51-2.51,3.89-5.84,3.89-9.38V86.68c0-3.54-1.38-6.88-3.89-9.38
		C130.3,74.83,126.88,73.42,123.39,73.42z M78.01,211.07H58.65v-28.53h19.35V211.07z M91.77,169.28c0,1.34-0.54,2.65-1.49,3.6
		c-0.95,0.95-2.26,1.49-3.6,1.49H49.97c-2.81,0-5.09-2.28-5.09-5.09v-5.09h46.88V169.28z M128.48,150.74c0,1.25-0.38,2.49-1.18,3.44
		c-0.99,1.17-2.4,1.83-3.91,1.83H13.27c-2.81,0-5.09-2.28-5.09-5.09V86.69c0-2.81,2.28-5.09,5.09-5.09l31.93,0
		c1.01,0,2.02-0.29,2.79-0.94c0.94-0.79,1.47-1.91,1.48-3.12c0.01-1.99,0.29-3.98,1.14-5.78c2.55-5.4,7.6-8.52,13.12-8.52h9.18
		c3.61,0,7.05,1.35,9.75,3.86c1.74,1.62,3,3.69,3.8,5.93l0.14,0.39H72.92c-2.26,0-4.09,1.83-4.09,4.09v0c0,2.26,1.83,4.09,4.09,4.09
		h50.48c1.51,0,2.92,0.65,3.91,1.83c0.8,0.95,1.18,2.2,1.18,3.44L128.48,150.74z" />
		<path class="dark" d="M68.33,91.77c-7.22,0-14.01,2.81-19.11,7.92c-5.11,5.1-7.92,11.89-7.92,19.11c0,7.22,2.81,14.01,7.92,19.11
		c5.1,5.1,11.89,7.92,19.11,7.92c7.22,0,14.01-2.81,19.11-7.92c5.11-5.11,7.92-11.89,7.92-19.11c-0.01-7.22-2.82-14-7.92-19.11
		C82.33,94.59,75.54,91.78,68.33,91.77z M81.66,132.14c-3.56,3.56-8.29,5.52-13.33,5.52c-5.04,0-9.77-1.96-13.33-5.52
		c-3.56-3.56-5.52-8.3-5.52-13.33c0-5.03,1.96-9.77,5.52-13.33c3.56-3.56,8.29-5.52,13.33-5.52c5.04,0,9.77,1.96,13.33,5.52
		c3.56,3.56,5.52,8.3,5.52,13.33S85.22,128.58,81.66,132.14z" />
		<path class="gold" d="M22.45,99.95L22.45,99.95c2.26,0,4.09-1.83,4.09-4.09v0c0-2.26-1.83-4.09-4.09-4.09h0
		c-2.26,0-4.09,1.83-4.09,4.09v0C18.36,98.12,20.19,99.95,22.45,99.95z" />
		<path class="gold" d="M205.99,0L77.83,0c-3.16,0-6.29,0.99-8.73,3c-3.12,2.57-4.86,6.28-4.86,10.26v31.62h8.18l0-9.18h138.66v96.86
		c0,1.34-0.54,2.65-1.49,3.6c-0.95,0.95-2.26,1.49-3.6,1.49h-18.35c-1.08,0-2.13,0.44-2.89,1.2l-20.55,20.55l0-17.5
		c0-0.95-0.26-1.9-0.84-2.65c-0.8-1.02-1.98-1.6-3.24-1.6h-9.18c-2.26,0-4.09,1.83-4.09,4.09v0c0,2.26,1.83,4.09,4.09,4.09h5.09
		v23.31c0,1.68,0.96,3.26,2.52,3.91c0.5,0.21,1.02,0.32,1.57,0.31c1.09,0,2.12-0.43,2.89-1.2l26.33-26.33l16.33,0
		c3.17,0,6.3-0.99,8.74-3c3.12-2.58,4.86-6.28,4.86-10.26l0-118.97c0-3.16-0.99-6.3-3-8.74C213.68,1.74,209.97,0,205.99,0z
		 M72.42,27.53l0-14.27c0-2.81,2.28-5.09,5.09-5.09h7.15l-9.68,19.35H72.42z M84.12,27.53L93.8,8.18h13.8l-9.68,19.35H84.12z
		 M107.06,27.53l9.68-19.35h13.8l-9.68,19.35H107.06z M130,27.53l9.68-19.35h13.8l-9.68,19.35H130z M152.95,27.53l9.68-19.35h13.8
		l-9.68,19.35H152.95z M175.89,27.53l9.68-19.35h13.8l-9.68,19.35H175.89z M211.07,27.53h-12.24l9.38-18.77l0.46,0.29
		c1.47,0.91,2.37,2.48,2.39,4.21V27.53z" />
		<path class="dark" d="M169.28,104.54L169.28,104.54c2.26,0,4.09-1.83,4.09-4.09v-41.8h18.85c2.26,0,4.09-1.83,4.09-4.09v0
		c0-2.26-1.83-4.09-4.09-4.09h-78c-2.26,0-4.09,1.83-4.09,4.09v0c0,2.26,1.83,4.09,4.09,4.09h50.98v41.8
		C165.19,102.71,167.02,104.54,169.28,104.54z" />
	</g>
</svg>