<svg version="1.1" id="Layer_1" xmlns="http://www.w3.org/2000/svg" xmlns:xlink="http://www.w3.org/1999/xlink" x="0px" y="0px" viewBox="0 0 276.18 276.18" style="enable-background:new 0 0 276.18 276.18;" xml:space="preserve">
	<g>
		<path class="gold" d="M138.09,43.71c12.05,0,21.85-9.8,21.85-21.85S150.14,0,138.09,0c-12.05,0-21.85,9.8-21.85,21.85
		C116.24,33.9,126.04,43.71,138.09,43.71z M138.09,7.94c7.67,0,13.91,6.24,13.91,13.91s-6.24,13.91-13.91,13.91
		s-13.91-6.24-13.91-13.91S130.42,7.94,138.09,7.94z" />
		<path class="gold" d="M138.09,232.48c-12.05,0-21.85,9.8-21.85,21.85s9.8,21.85,21.85,21.85s21.85-9.8,21.85-21.85
		S150.14,232.48,138.09,232.48z M138.09,268.24c-7.67,0-13.91-6.24-13.91-13.91s6.24-13.91,13.91-13.91S152,246.66,152,254.33
		S145.76,268.24,138.09,268.24z" />
		<path class="dark" d="M83.17,40.2l3.51,7.9l14.73-20.22l-24.87-2.65l3.41,7.69l-0.4,0.22c-26.14,14.63-46.41,39.21-55.69,67.48
		l7.55,2.44C40,76.96,58.66,54.17,82.69,40.48L83.17,40.2z" />
		<path class="dark" d="M40.48,193.48L40.21,193l7.9-3.5L27.9,174.77l-2.65,24.88l7.69-3.41l0.22,0.4
		c14.64,26.14,39.21,46.41,67.48,55.68l2.44-7.55C76.97,236.19,54.17,217.52,40.48,193.48z" />
		<path class="gold" d="M104.35,165.98c0.94,0.48,2.02,0.55,3.03,0.22c1.01-0.34,1.83-1.04,2.3-1.99
		c3.86-7.75,10.75-13.66,18.92-16.22c1.52-0.47,2.61-1.8,2.76-3.39c0.16-1.58-0.64-3.1-2.04-3.87c-5.92-3.26-9.6-9.4-9.6-16.03
		c0-10.13,8.25-18.38,18.38-18.38c10.14,0,18.38,8.25,18.38,18.38c0,6.63-3.68,12.78-9.59,16.04c-1.4,0.77-2.2,2.29-2.04,3.88
		c0.16,1.59,1.25,2.92,2.77,3.39c8.16,2.56,15.06,8.47,18.91,16.23c0.47,0.94,1.28,1.65,2.28,1.98c1.01,0.34,2.09,0.27,3.04-0.21
		c0.95-0.47,1.66-1.28,2-2.28c0.34-1.01,0.27-2.09-0.21-3.04c-3.57-7.17-9.39-13.25-16.38-17.13l-0.57-0.31l0.45-0.47
		c4.7-4.9,7.29-11.31,7.29-18.06c0-14.51-11.81-26.32-26.32-26.32c-14.52,0-26.32,11.81-26.32,26.32c0,6.74,2.59,13.15,7.29,18.05
		l0.45,0.47l-0.57,0.31c-7,3.88-12.81,9.97-16.38,17.14C101.59,162.61,102.39,165,104.35,165.98z" />
		<path class="gold" d="M21.85,116.24C9.8,116.24,0,126.04,0,138.09s9.8,21.85,21.85,21.85s21.85-9.8,21.85-21.85
		S33.91,116.24,21.85,116.24z M21.85,152c-7.67,0-13.91-6.24-13.91-13.91s6.24-13.91,13.91-13.91s13.91,6.24,13.91,13.91
		S29.53,152,21.85,152z" />
		<path class="gold" d="M254.32,116.24c-12.05,0-21.85,9.8-21.85,21.85s9.8,21.85,21.85,21.85c12.05,0,21.85-9.8,21.85-21.85
		S266.38,116.24,254.32,116.24z M254.32,152c-7.67,0-13.91-6.24-13.91-13.91s6.24-13.91,13.91-13.91s13.91,6.24,13.91,13.91
		S262,152,254.32,152z" />
		<path class="dark" d="M138.08,213.59c41.63,0,75.5-33.87,75.5-75.5s-33.87-75.5-75.5-75.5s-75.5,33.87-75.5,75.5
		S96.45,213.59,138.08,213.59z M138.09,70.53c37.25,0,67.56,30.31,67.56,67.56c0,37.25-30.31,67.56-67.56,67.56
		s-67.56-30.31-67.56-67.56S100.83,70.53,138.09,70.53z" />
		<path class="dark" d="M235.7,82.7l0.27,0.48l-7.9,3.5l20.22,14.73l2.66-24.87l-7.69,3.41l-0.22-0.4
		c-14.63-26.14-39.21-46.41-67.48-55.69l-2.44,7.56C199.22,39.99,222.02,58.66,235.7,82.7z" />
		<path class="dark" d="M193.02,235.97l-3.51-7.9l-14.73,20.22l24.87,2.66l-3.41-7.69l0.4-0.22c26.14-14.63,46.42-39.21,55.69-67.48
		l-7.55-2.44c-8.57,26.11-27.23,48.9-51.28,62.59L193.02,235.97z" />
	</g>
</svg>