<svg version="1.1" id="Layer_1" xmlns="http://www.w3.org/2000/svg" xmlns:xlink="http://www.w3.org/1999/xlink" x="0px" y="0px" viewBox="0 0 221.24 221.24" style="enable-background:new 0 0 221.24 221.24;" xml:space="preserve">
	<g>
		<path class="gold" d="M217.55,55.31h-22.12V3.69c0-2.04-1.65-3.69-3.69-3.69H3.69C1.65,0,0,1.65,0,3.69v162.24
		c0,2.04,1.65,3.69,3.69,3.69h33.19v24.55l-7.8,5.5c-4.67,3.3-5.84,9.6-2.67,14.36c2.01,3.01,5.35,4.65,8.75,4.65
		c0.64,0,1.27-0.08,1.91-0.2c0.42,1.57,1.79,2.76,3.5,2.76H202.8c10.17,0,18.44-8.27,18.44-18.44V59
		C221.24,56.96,219.59,55.31,217.55,55.31L217.55,55.31z M7.37,7.37h180.68V29.5H7.37V7.37z M7.37,162.24V36.87h180.68v18.44H40.56
		c-2.04,0-3.69,1.65-3.69,3.69v103.24L7.37,162.24z M36.8,210.82c-1.42,0.91-3.32,0.52-4.26-0.88c-0.94-1.41-0.59-3.27,0.79-4.24
		l53.73-37.92c1.38,2.62,3,5.09,4.79,7.43L36.8,210.82z M88.49,143.81c0-24.4,19.85-44.25,44.25-44.25s44.25,19.85,44.25,44.25
		s-19.85,44.25-44.25,44.25C108.34,188.05,88.49,168.2,88.49,143.81z M213.86,202.8c0,6.1-4.96,11.06-11.06,11.06H45.67l51.13-33.08
		c9.3,9.05,21.97,14.65,35.94,14.65c28.47,0,51.62-23.16,51.62-51.62c0-28.47-23.16-51.62-51.62-51.62
		c-28.47,0-51.62,23.16-51.62,51.62c0,5.98,1.07,11.7,2.95,17.04l-39.82,28.11V84.81h169.62L213.86,202.8z M213.86,77.43H44.25
		V62.68h169.62L213.86,77.43z" />
		<path class="dark" d="M114.21,146.14l8.2,10.94c0.85,1.14,2.27,1.67,3.68,1.41c1.39-0.28,2.5-1.34,2.84-2.72l4.45-17.8l10.63,29.23
		c0.53,1.45,1.92,2.42,3.47,2.42h0.05c1.57-0.02,2.95-1.03,3.45-2.52l14.75-44.25l-6.99-2.33l-11.4,34.21l-11.14-30.62
		c-0.55-1.52-1.98-2.54-3.65-2.42c-1.62,0.09-2.99,1.22-3.38,2.79l-5.5,21.98l-6.42-8.55c-0.69-0.91-1.75-1.46-2.89-1.48
		c-1.13-0.11-2.23,0.49-2.94,1.38l-14.75,18.44l5.76,4.61L114.21,146.14z" />
		<path class="gold" d="M14.75,14.75h7.38v7.38h-7.38V14.75z" />
		<path class="gold" d="M29.5,14.75h7.38v7.38H29.5V14.75z" />
		<path class="gold" d="M44.25,14.75h7.38v7.38h-7.38V14.75z" />
	</g>
</svg>