<svg version="1.1" id="Layer_1" xmlns="http://www.w3.org/2000/svg" xmlns:xlink="http://www.w3.org/1999/xlink" x="0px" y="0px" viewBox="0 0 237.4 235.36" style="enable-background:new 0 0 237.4 235.36;" xml:space="preserve">
	<g>
		<path class="gold" d="M55.88,194.34c-1.34,0-2.59-0.76-3.19-1.99l-20.03-41.02c-0.68-1.39-0.38-3.06,0.74-4.13l73.25-69.64
		c0.82-0.78,1.96-1.12,3.08-0.92c1.11,0.2,2.07,0.92,2.56,1.94l46.75,95.72c0.5,1.02,0.48,2.21-0.05,3.21
		c-0.53,1-1.5,1.69-2.62,1.86L56.41,194.3C56.23,194.33,56.06,194.34,55.88,194.34L55.88,194.34z M40.18,150.55l17.75,36.34
		l92.59-13.85l-42.49-87.01L40.18,150.55z" />
		<path class="gold" d="M140.27,147.49c-1.32,0-2.58-0.73-3.19-1.99l-15.58-31.91c-0.41-0.85-0.47-1.82-0.17-2.71
		c0.31-0.89,0.95-1.62,1.8-2.04l2.28-1.11c2.94-1.44,6.08-2.17,9.34-2.17c8.21,0,15.55,4.58,19.16,11.96
		c2.5,5.11,2.85,10.89,1,16.27c-1.85,5.38-5.69,9.72-10.8,12.22l-2.28,1.11C141.32,147.37,140.79,147.49,140.27,147.49
		L140.27,147.49z M129.45,113.7l12.44,25.46c2.96-1.71,5.18-4.4,6.3-7.67c1.23-3.59,1-7.44-0.67-10.85
		c-2.4-4.92-7.3-7.98-12.78-7.98C132.91,112.67,131.14,113.01,129.45,113.7L129.45,113.7z" />
		<path class="gold" d="M33.1,205.47c-1.32,0-2.58-0.73-3.19-1.99L9.87,162.46c-0.41-0.85-0.47-1.82-0.17-2.71
		c0.31-0.89,0.95-1.62,1.8-2.04l22.79-11.13c1.76-0.86,3.89-0.13,4.75,1.63l20.03,41.02c0.41,0.85,0.47,1.82,0.17,2.71
		c-0.31,0.89-0.95,1.62-1.8,2.04l-22.79,11.13C34.16,205.36,33.62,205.47,33.1,205.47L33.1,205.47z M17.81,162.53l16.92,34.64
		l16.41-8.01l-16.92-34.64L17.81,162.53z" />
		<path class="gold" d="M16.25,200.98c-6.26,0-11.85-3.49-14.59-9.11c-1.9-3.9-2.17-8.3-0.76-12.4c1.41-4.1,4.33-7.41,8.23-9.31
		l6.84-3.34c0.85-0.41,1.82-0.47,2.71-0.17c0.89,0.31,1.62,0.95,2.04,1.8l11.13,22.79c0.41,0.85,0.47,1.82,0.17,2.71
		c-0.31,0.89-0.95,1.62-1.8,2.04l-6.84,3.34C21.12,200.43,18.73,200.98,16.25,200.98L16.25,200.98z M15.88,174.76l-3.65,1.78
		c-2.19,1.07-3.83,2.93-4.63,5.24c-0.79,2.31-0.64,4.78,0.43,6.98c1.54,3.16,4.69,5.13,8.21,5.13c1.39,0,2.74-0.31,4-0.93l3.65-1.78
		L15.88,174.76z" />
		<path class="gold" d="M128.61,181.41c-1.32,0-2.58-0.73-3.19-1.99l-28.94-59.26c-0.86-1.76-0.13-3.89,1.63-4.75
		c1.76-0.86,3.89-0.13,4.75,1.63l28.94,59.26c0.86,1.76,0.13,3.89-1.63,4.75C129.66,181.29,129.13,181.41,128.61,181.41
		L128.61,181.41z" />
		<path class="gold" d="M75.92,235.36c-0.82,0-1.63-0.28-2.28-0.83l-38.27-32.12c-0.92-0.77-1.39-1.96-1.24-3.15
		c0.15-1.19,0.89-2.23,1.97-2.76l18.23-8.91c1.26-0.62,2.77-0.43,3.84,0.47l38.27,32.12c0.92,0.77,1.39,1.96,1.24,3.15
		c-0.15,1.19-0.89,2.23-1.97,2.76L77.48,235C76.98,235.25,76.45,235.36,75.92,235.36L75.92,235.36z M44.12,200.49l32.31,27.12
		l11.25-5.5l-32.31-27.12L44.12,200.49z" />
		<path class="gold" d="M56.21,160.32c-1.32,0-2.58-0.73-3.19-1.99c-0.86-1.76-0.13-3.89,1.63-4.75l9.12-4.45
		c1.76-0.86,3.89-0.13,4.75,1.63c0.86,1.76,0.13,3.89-1.63,4.75l-9.12,4.45C57.26,160.2,56.73,160.32,56.21,160.32L56.21,160.32z" />
		<path class="gold" d="M62.89,173.99c-1.32,0-2.58-0.73-3.19-1.99c-0.86-1.76-0.13-3.89,1.63-4.75l9.12-4.45
		c1.76-0.86,3.89-0.13,4.75,1.63c0.86,1.76,0.13,3.89-1.63,4.75l-9.12,4.45C63.94,173.87,63.41,173.99,62.89,173.99L62.89,173.99z" />
		<path class="dark" d="M174.5,84.8c-12.08,0-21.91-9.83-21.91-21.91s9.83-21.91,21.91-21.91s21.91,9.83,21.91,21.91
		S186.58,84.8,174.5,84.8z M174.5,48.09c-8.16,0-14.8,6.64-14.8,14.8s6.64,14.8,14.8,14.8s14.8-6.64,14.8-14.8
		C189.31,54.74,182.67,48.09,174.5,48.09z" />
		<path class="dark" d="M180.19,125.8c-0.26,0-0.52-0.03-0.78-0.09c-1.91-0.43-3.12-2.33-2.69-4.24l3.79-16.97
		c0.3-1.34,1.35-2.39,2.69-2.69c4.49-1,8.74-2.76,12.62-5.23c1.16-0.74,2.64-0.74,3.8,0l12.31,7.8l4.02-4.02l-7.8-12.31
		c-0.73-1.16-0.73-2.64,0-3.8c2.48-3.93,4.24-8.18,5.24-12.63c0.3-1.34,1.35-2.39,2.69-2.69l14.2-3.17v-5.69l-14.2-3.17
		c-1.34-0.3-2.39-1.35-2.69-2.69c-0.99-4.46-2.75-8.71-5.24-12.63c-0.73-1.16-0.73-2.64,0-3.8l7.8-12.31l-4.01-4.01l-12.31,7.82
		c-1.17,0.74-2.65,0.74-3.82,0c-3.85-2.45-8.1-4.22-12.63-5.25c-1.34-0.3-2.38-1.35-2.68-2.69l-3.17-14.2h-5.68l-3.17,14.2
		c-0.3,1.34-1.34,2.38-2.68,2.69c-4.54,1.03-8.79,2.8-12.63,5.25c-1.16,0.74-2.65,0.75-3.82,0l-12.32-7.82l-4.01,4.01l7.8,12.31
		c0.73,1.16,0.73,2.64,0,3.8c-2.48,3.93-4.24,8.18-5.24,12.63c-0.3,1.34-1.35,2.4-2.69,2.69l-16.97,3.79
		c-1.91,0.43-3.81-0.78-4.24-2.69s0.78-3.81,2.69-4.24l14.83-3.31c1.02-3.73,2.51-7.32,4.45-10.72l-8.14-12.87
		c-0.89-1.4-0.69-3.23,0.49-4.41l8.04-8.04c1.18-1.18,3.01-1.38,4.41-0.49l12.86,8.16c3.36-1.92,6.95-3.41,10.72-4.46l3.31-14.84
		c0.36-1.62,1.8-2.78,3.47-2.78h11.38c1.66,0,3.1,1.15,3.47,2.78l3.31,14.84c3.77,1.05,7.37,2.54,10.72,4.46l12.86-8.16
		c1.4-0.89,3.24-0.69,4.41,0.49l8.04,8.04c1.17,1.17,1.38,3.01,0.49,4.41l-8.14,12.87c1.93,3.4,3.42,6.99,4.45,10.72l14.83,3.31
		c1.62,0.36,2.78,1.8,2.78,3.47v11.38c0,1.66-1.15,3.1-2.78,3.47l-14.83,3.31c-1.02,3.73-2.51,7.32-4.45,10.72l8.14,12.87
		c0.89,1.4,0.69,3.23-0.49,4.41l-8.04,8.04c-1.17,1.17-3.01,1.38-4.41,0.49l-12.86-8.14c-3.38,1.93-6.97,3.42-10.73,4.44
		l-3.31,14.83C183.28,124.67,181.82,125.8,180.19,125.8L180.19,125.8z" />
		<path class="gold" d="M231.82,215.07H181.1c-1.96,0-3.55-1.59-3.55-3.55l0-50.72c0-1.96,1.59-3.55,3.55-3.55h50.73
		c1.96,0,3.55,1.59,3.55,3.55v50.73C235.37,213.48,233.79,215.07,231.82,215.07L231.82,215.07z M184.65,207.97h43.62v-43.62h-43.62
		L184.65,207.97z" />
		<path class="gold" d="M201.39,194.79c-0.65,0-1.3-0.18-1.87-0.53c-1.05-0.65-1.68-1.79-1.68-3.02v-10.15c0-1.23,0.64-2.37,1.68-3.02
		c1.05-0.65,2.35-0.71,3.46-0.16l10.15,5.07c1.2,0.6,1.96,1.83,1.96,3.18c0,1.35-0.76,2.57-1.96,3.18l-10.15,5.07
		C202.47,194.66,201.93,194.79,201.39,194.79L201.39,194.79z" />
	</g>
</svg>